<svg width="48" height="48" viewBox="0 0 48 48" fill="none" xmlns="http://www.w3.org/2000/svg">
<g opacity="0.55">
<path d="M0 36V12C0 10.4087 0.632141 8.88258 1.75736 7.75736C2.88258 6.63214 4.4087 6 6 6H42C43.5913 6 45.1174 6.63214 46.2426 7.75736C47.3679 8.88258 48 10.4087 48 12V36C48 37.5913 47.3679 39.1174 46.2426 40.2426C45.1174 41.3679 43.5913 42 42 42H6C4.4087 42 2.88258 41.3679 1.75736 40.2426C0.632141 39.1174 0 37.5913 0 36ZM20.37 15.279C20.1457 15.1193 19.8818 15.0244 19.6072 15.0048C19.3325 14.9851 19.0578 15.0414 18.813 15.1675C18.5683 15.2936 18.3629 15.4846 18.2195 15.7197C18.0761 15.9547 18.0002 16.2247 18 16.5V31.5C18.0002 31.7753 18.0761 32.0453 18.2195 32.2803C18.3629 32.5154 18.5683 32.7064 18.813 32.8325C19.0578 32.9586 19.3325 33.0149 19.6072 32.9952C19.8818 32.9756 20.1457 32.8807 20.37 32.721L30.87 25.221C31.0644 25.0822 31.2229 24.8991 31.3323 24.6867C31.4417 24.4743 31.4987 24.2389 31.4987 24C31.4987 23.7611 31.4417 23.5257 31.3323 23.3133C31.2229 23.1009 31.0644 22.9178 30.87 22.779L20.37 15.279Z" fill="white"/>
</g>
</svg>
